<?xml version="1.0" encoding="UTF-8"?>
<svg version="1.1" xmlns="http://www.w3.org/2000/svg" width="1024" height="1018">
<path d="M0 0 C3.50928278 -0.0090147 7.01818924 -0.03030063 10.52734375 -0.06152344 C14.83904792 -0.09987774 19.15041367 -0.11874851 23.46228218 -0.12328148 C25.08538799 -0.12813119 26.70848904 -0.13969883 28.33149529 -0.15831947 C30.578994 -0.18261851 32.82516467 -0.18177026 35.07275391 -0.17480469 C36.34509384 -0.18067093 37.61743378 -0.18653717 38.92832947 -0.19258118 C42.85008395 0.38079467 44.4670545 1.54751203 47.2644043 4.29516602 C48.5925293 6.29516602 48.5925293 6.29516602 49.5144043 8.29516602 C49.82893555 8.95516602 50.1434668 9.61516602 50.4675293 10.29516602 C54.23034479 19.73909509 53.69960323 32.80092001 50.2019043 42.17016602 C49.26748409 44.23269578 48.28738754 46.27509784 47.2644043 48.29516602 C46.74491211 49.38313477 46.22541992 50.47110352 45.69018555 51.59204102 C42.2428954 58.43840746 38.18356075 64.25125647 33.18237305 70.05297852 C31.14656874 72.34264146 31.14656874 72.34264146 29.2644043 75.29516602 C28.6044043 75.29516602 27.9444043 75.29516602 27.2644043 75.29516602 C26.87381836 76.19428711 26.87381836 76.19428711 26.4753418 77.11157227 C25.18156179 79.44454976 23.96971666 80.59294383 21.8894043 82.23266602 C19.70063134 83.96343582 18.09623557 85.51518677 16.3894043 87.74829102 C0.03725886 107.34681826 -36.86598623 113.30617547 -60.66357422 115.57421875 C-68.95421917 116.26705318 -77.23349751 116.52288427 -85.5480957 116.73266602 C-104.92853234 116.31360492 -104.92853234 116.31360492 -122.7355957 122.29516602 C-124.67791766 125.13764337 -126.09157807 128.18222243 -127.5480957 131.29516602 C-131.48137848 139.18242139 -135.64294187 145.85436054 -141.7355957 152.29516602 C-142.20835937 152.80208984 -142.68112305 153.30901367 -143.16821289 153.83129883 C-151.02757424 162.2028997 -159.47613088 169.51688876 -168.7355957 176.29516602 C-169.71012695 177.01446289 -170.6846582 177.73375977 -171.6887207 178.47485352 C-189.59636266 191.04934527 -209.34120312 197.33392732 -231.08789062 198.57592773 C-237.75283949 198.9938434 -244.51800111 199.7304167 -249.8918457 204.01391602 C-250.3352832 204.60172852 -250.7787207 205.18954102 -251.2355957 205.79516602 C-251.6996582 206.38297852 -252.1637207 206.97079102 -252.6418457 207.57641602 C-255.34403051 211.82270642 -255.31707112 216.44146151 -254.7355957 221.29516602 C-252.62474782 227.18030169 -248.70549704 230.84643365 -243.1730957 233.54516602 C-212.82369262 240.16685396 -174.18821693 225.66432169 -149.0480957 209.54516602 C-145.88988737 207.48175376 -142.88618289 205.41835441 -139.96606445 203.02954102 C-137.7355957 201.29516602 -137.7355957 201.29516602 -135.7355957 201.29516602 C-135.7355957 200.63516602 -135.7355957 199.97516602 -135.7355957 199.29516602 C-134.2668457 197.84985352 -134.2668457 197.84985352 -132.2355957 196.17016602 C-120.31809213 185.94323651 -111.42208686 174.04638679 -103.27075195 160.66235352 C-102.51084961 159.4905957 -102.51084961 159.4905957 -101.7355957 158.29516602 C-101.2118335 157.43898682 -100.68807129 156.58280762 -100.1484375 155.70068359 C-96.87590395 152.43808387 -93.98550311 152.50706544 -89.5949707 152.43969727 C-88.39520599 152.39083626 -88.39520599 152.39083626 -87.17120361 152.34098816 C-84.60955794 152.24055311 -82.04836514 152.17260431 -79.4855957 152.10766602 C-76.14664222 151.99961449 -72.80829224 151.87816702 -69.4699707 151.75219727 C-68.65214111 151.72317322 -67.83431152 151.69414917 -66.99169922 151.66424561 C-60.25893348 151.39395087 -53.6523482 150.66572013 -46.98071289 149.74072266 C-44.39389992 149.3855516 -41.83796999 149.11012034 -39.2355957 148.92016602 C-22.49356665 147.00768704 -6.08259914 140.33193652 9.5222168 134.29516602 C10.64200928 133.86204102 10.64200928 133.86204102 11.78442383 133.42016602 C14.43324347 132.32742689 14.43324347 132.32742689 17.05908203 130.18798828 C22.49149706 127.05770704 28.90417983 127.84254432 34.9754467 127.96394157 C37.33930086 128.01095553 39.70228738 128.032788 42.06654358 128.04872131 C47.11203983 128.08746816 52.15681749 128.1589473 57.2019043 128.23266602 C63.79422071 128.32515108 70.38641833 128.40309992 76.97924805 128.44750977 C77.77886208 128.45294296 78.5784761 128.45837616 79.40232086 128.463974 C92.87428568 128.52841166 105.96942105 127.58482216 119.2644043 125.29516602 C120.21148758 125.13565964 121.15857086 124.97615326 122.13435364 124.81181335 C144.76610085 120.96573531 166.85256872 114.58143162 187.85424805 105.24047852 C195.81254133 102.11907337 205.28830248 102.27718154 213.2644043 105.29516602 C216.40480861 106.75071849 219.47386281 108.23737065 222.2644043 110.29516602 C222.5944043 111.28516602 222.9244043 112.27516602 223.2644043 113.29516602 C225.26456896 114.50398698 225.26456896 114.50398698 227.2644043 115.29516602 C227.2644043 115.95516602 227.2644043 116.61516602 227.2644043 117.29516602 C227.9244043 117.29516602 228.5844043 117.29516602 229.2644043 117.29516602 C229.2644043 117.95516602 229.2644043 118.61516602 229.2644043 119.29516602 C229.9244043 119.29516602 230.5844043 119.29516602 231.2644043 119.29516602 C233.03103473 121.36378456 234.68813468 123.44095377 236.3269043 125.60766602 C237.33216205 126.91852343 238.3386848 128.22841167 239.34643555 129.53735352 C240.09401123 130.50946777 240.09401123 130.50946777 240.85668945 131.5012207 C242.66871788 133.81040989 244.59265 136.01441249 246.5144043 138.23266602 C265.88439553 161.81806901 279.02144308 189.65972185 288.63696289 218.42260742 C289.19437271 220.08616124 289.76917142 221.74386588 290.34643555 223.40063477 C298.84413147 249.02914398 301.48841161 275.96104162 301.4519043 302.79516602 C301.45096771 303.68356171 301.45003113 304.5719574 301.44906616 305.48727417 C301.40025562 326.83912258 299.32056769 346.51697214 294.2644043 367.29516602 C294.06443848 368.13321777 293.86447266 368.97126953 293.65844727 369.8347168 C289.54890403 386.91382766 284.0970934 403.54623912 276.2644043 419.29516602 C275.77069336 420.30836914 275.27698242 421.32157227 274.76831055 422.36547852 C268.18766558 435.73187945 261.15141518 448.59378518 251.8112793 460.24829102 C250.44505857 462.05611844 249.37364269 463.79350838 248.3269043 465.79516602 C246.24966391 469.63277962 243.41528951 472.63028011 240.47924805 475.83422852 C238.1116052 478.46494279 235.87085104 481.1731911 233.6394043 483.92016602 C232.51985352 485.29495117 232.51985352 485.29495117 231.37768555 486.69750977 C230.06226088 488.31443658 228.74710764 489.93158429 227.43237305 491.54907227 C226.08737748 493.16895744 224.68242322 494.73880379 223.2644043 496.29516602 C222.6044043 496.29516602 221.9444043 496.29516602 221.2644043 496.29516602 C221.2644043 496.95516602 221.2644043 497.61516602 221.2644043 498.29516602 C220.6044043 498.29516602 219.9444043 498.29516602 219.2644043 498.29516602 C219.2644043 498.95516602 219.2644043 499.61516602 219.2644043 500.29516602 C216.8894043 502.92016602 216.8894043 502.92016602 214.2644043 505.29516602 C213.6044043 505.29516602 212.9444043 505.29516602 212.2644043 505.29516602 C212.2644043 505.95516602 212.2644043 506.61516602 212.2644043 507.29516602 C210.97143555 508.63500977 210.97143555 508.63500977 209.0769043 510.23266602 C207.97862305 511.1646582 207.97862305 511.1646582 206.8581543 512.11547852 C206.0022168 512.83477539 205.1462793 513.55407227 204.2644043 514.29516602 C203.2847168 515.13821289 202.3050293 515.98125977 201.2956543 516.84985352 C169.61599088 544.06807429 133.78219441 564.69595993 94.2644043 578.29516602 C93.50869141 578.5592627 92.75297852 578.82335937 91.97436523 579.09545898 C78.64743163 583.70994542 65.11264423 586.69382456 51.2644043 589.29516602 C50.09780273 589.52075195 48.93120117 589.74633789 47.72924805 589.97875977 C23.19750546 594.23797214 -1.92029564 593.58798238 -26.71546805 593.55661535 C-32.0807231 593.55203848 -37.44596578 593.55909999 -42.81121826 593.5645752 C-53.28478631 593.57341366 -63.75832551 593.57157271 -74.23189463 593.56574991 C-82.74614964 593.56121407 -91.26039661 593.56062878 -99.77465248 593.56279755 C-100.99115742 593.56310401 -102.20766236 593.56341048 -103.46103108 593.56372623 C-105.9329895 593.56436574 -108.40494791 593.56501416 -110.87690631 593.56567141 C-133.98815902 593.57135775 -157.0993958 593.56484216 -180.21064589 593.55407068 C-200.01950755 593.54512428 -219.82834579 593.54669947 -239.63720703 593.5559082 C-262.68866925 593.56661945 -285.74011757 593.57082162 -308.79158193 593.56468368 C-311.25055873 593.56404662 -313.70953554 593.56341788 -316.16851234 593.56279755 C-317.37814031 593.562489 -318.58776828 593.56218044 -319.83405164 593.56186254 C-328.33873933 593.5601391 -336.84341816 593.56304287 -345.34810448 593.56775665 C-355.71050899 593.57337444 -366.07288322 593.57182962 -376.43528428 593.56119516 C-381.71707936 593.55595249 -386.998824 593.55385793 -392.28061867 593.56049347 C-397.12171209 593.56648335 -401.96270863 593.56312803 -406.80379335 593.55253837 C-408.54823556 593.55031733 -410.29268607 593.55141122 -412.03712287 593.55628994 C-442.9830329 593.63615277 -442.9830329 593.63615277 -454.86450195 582.25610352 C-462.6226665 573.34798139 -463.18489789 562.06072542 -463.12327576 550.72920227 C-463.12866129 549.52221229 -463.13404683 548.31522231 -463.13959557 547.07165688 C-463.15134074 543.75654694 -463.1498451 540.44194598 -463.14242876 537.1268574 C-463.13766804 533.53772947 -463.1502326 529.94865366 -463.16044617 526.35954285 C-463.17758461 519.34095732 -463.17848429 512.32246153 -463.17323326 505.30386052 C-463.16918006 499.59347113 -463.17064874 493.8831081 -463.17598152 488.17271996 C-463.17672994 487.3577472 -463.17747837 486.54277444 -463.17824947 485.70310554 C-463.17978107 484.04706937 -463.18131942 482.39103321 -463.18286444 480.73499706 C-463.19657226 465.22680499 -463.19116451 449.71866345 -463.17967922 434.21047255 C-463.1697548 420.05451024 -463.18267688 405.8986788 -463.20661341 391.74273667 C-463.23105836 377.17527125 -463.24059868 362.60786664 -463.23396069 348.04038113 C-463.23047963 339.87481106 -463.23262617 331.70934147 -463.25021172 323.543787 C-463.26500165 316.59055751 -463.26548148 309.63749924 -463.2481408 302.68427286 C-463.23968269 299.14383538 -463.237352 295.60370284 -463.25279236 292.06328201 C-463.31141148 277.59084253 -463.10441996 264.18797289 -458.7355957 250.29516602 C-458.39393592 249.15519826 -458.05227613 248.0152305 -457.70026302 246.84071827 C-456.81072011 243.92810904 -455.85159199 241.04971106 -454.8605957 238.17016602 C-454.51399902 237.14810059 -454.16740234 236.12603516 -453.81030273 235.07299805 C-451.05207792 227.0246786 -448.04263826 219.13340501 -444.7355957 211.29516602 C-444.28958008 210.18915039 -443.84356445 209.08313477 -443.3840332 207.94360352 C-439.46090002 198.40973236 -434.6771159 189.41275836 -429.81323242 180.33325195 C-428.56443919 177.97146539 -427.39068993 175.57901019 -426.2355957 173.17016602 C-421.17761318 162.94658432 -415.19875261 152.98198823 -408.5090332 143.74829102 C-406.77975399 141.3562484 -405.11276117 138.92700096 -403.45239258 136.48681641 C-399.73497287 131.03884662 -395.8574027 125.77499981 -391.67700195 120.67016602 C-390.41368492 119.12469971 -389.17019323 117.56274093 -387.95043945 115.98266602 C-381.726566 107.94845145 -374.7558091 100.62934978 -367.7355957 93.29516602 C-366.38014648 91.8759082 -366.38014648 91.8759082 -364.99731445 90.42797852 C-359.27207941 84.56577613 -353.18611242 79.33764436 -346.7355957 74.29516602 C-346.0967041 73.79049805 -345.4578125 73.28583008 -344.79956055 72.76586914 C-335.76225859 65.64107801 -326.71727235 59.05003391 -316.7355957 53.29516602 C-315.62958008 52.64161133 -314.52356445 51.98805664 -313.3840332 51.31469727 C-301.45854901 44.3168333 -289.36135203 37.87047953 -276.2121582 33.49829102 C-273.39791981 32.52437481 -270.67577206 31.46738989 -267.9230957 30.33813477 C-241.67457793 19.75095317 -212.85841528 16.37812636 -185.04362488 12.37139893 C-180.1924474 11.66855155 -175.35190536 10.91703392 -170.51402283 10.12808228 C-154.78652428 7.57090785 -138.99037659 6.03782222 -123.1105957 4.79516602 C-122.31099426 4.73202209 -121.51139282 4.66887817 -120.68756104 4.6038208 C-107.83806549 3.59755589 -94.9834556 2.80742069 -82.1105957 2.17016602 C-81.33915222 2.13173584 -80.56770874 2.09330566 -79.77288818 2.05371094 C-75.0011777 1.81938188 -70.22882584 1.60693813 -65.45547485 1.40890503 C-63.57156635 1.33012436 -61.68776152 1.2488397 -59.80404663 1.16555786 C-39.87039118 0.29386821 -19.95007132 0.04576083 0 0 Z M194.53637695 192.1628418 C152.56875609 213.07900616 102.58525411 218.83767615 56.2644043 220.29516602 C55.60166504 220.31708008 54.93892578 220.33899414 54.25610352 220.36157227 C40.93345056 220.74086488 27.65063657 219.83509226 14.36035156 219.00683594 C13.24410149 218.93791389 13.24410149 218.93791389 12.1053009 218.86759949 C10.06020358 218.74037527 8.01532307 218.60967941 5.97045898 218.47875977 C-5.5751791 217.81609882 -5.5751791 217.81609882 -15.5715332 222.91235352 C-20.05911246 228.01287043 -22.21359821 232.13441431 -22.0559082 238.98266602 C-21.31276031 244.34783126 -18.00597776 249.06352554 -13.7355957 252.29516602 C-6.22367948 255.49814368 1.43534679 256.41759141 9.53393555 256.90063477 C10.34644272 256.94935226 11.15894989 256.99806976 11.99607849 257.04826355 C69.91255503 260.3677091 127.09725295 255.95805794 182.2644043 237.29516602 C183.26246094 236.95839844 184.26051758 236.62163086 185.28881836 236.2746582 C196.73124683 232.36812698 207.6276361 228.05505071 218.2644043 222.29516602 C219.30467773 221.76922852 220.34495117 221.24329102 221.41674805 220.70141602 C227.44018219 217.59867464 231.17590398 215.05446659 234.5144043 209.04516602 C236.39959357 202.13280534 235.47930175 196.59100687 232.2644043 190.29516602 C231.6044043 190.29516602 230.9444043 190.29516602 230.2644043 190.29516602 C230.2644043 189.63516602 230.2644043 188.97516602 230.2644043 188.29516602 C225.25873494 184.65467921 221.10248106 183.38604284 214.89331055 183.58032227 C207.59062168 185.01884978 201.12459247 188.81126715 194.53637695 192.1628418 Z M211.0769043 320.92016602 C208.73617507 321.66106681 206.39502376 322.40063536 204.0534668 323.13891602 C202.89878906 323.50629883 201.74411133 323.87368164 200.55444336 324.25219727 C165.10554528 335.48978205 128.27223044 341.24100853 91.2644043 344.29516602 C90.30632874 344.37585831 89.34825317 344.4565506 88.36114502 344.53968811 C73.6878267 345.74722725 59.08400362 346.48041334 44.3659668 346.63891602 C43.61042196 346.64709665 42.85487713 346.65527729 42.076437 346.66370583 C35.88573387 346.72713104 29.69491563 346.77014129 23.50402832 346.81085205 C18.81992429 346.84221616 14.13601418 346.88133298 9.45206833 346.93110657 C7.29676318 346.95090351 5.14161264 346.95941896 2.98623657 346.96740723 C1.02525528 346.98752869 1.02525528 346.98752869 -0.9753418 347.00805664 C-2.11587006 347.0153479 -3.25639832 347.02263916 -4.43148804 347.03015137 C-13.07523322 347.72344569 -18.99500047 350.91672687 -24.7355957 357.29516602 C-26.52564782 362.66532236 -26.74018641 369.05751367 -25.05200195 374.49829102 C-22.81389321 378.77019983 -20.00377857 381.19987625 -15.7355957 383.29516602 C-6.33335733 385.94246138 3.40729001 385.56641 13.0769043 385.48266602 C14.78450412 385.47374824 16.49210508 385.46504372 18.19970703 385.45654297 C58.60361773 385.20421956 99.2931554 383.46776091 139.2644043 377.29516602 C140.46871094 377.11228027 141.67301758 376.92939453 142.91381836 376.7409668 C167.06786988 373.01087185 190.67418375 367.60690893 213.9519043 360.17016602 C214.60189392 359.96428864 215.25188354 359.75841125 215.92156982 359.54629517 C232.93448155 354.42831158 232.93448155 354.42831158 244.5769043 341.92016602 C246.25608143 335.50876243 245.64574072 330.76033001 242.4675293 325.05297852 C239.68474429 320.9872212 235.95510521 318.60419883 231.2644043 317.29516602 C223.95124195 316.70810023 217.98604167 318.65398935 211.0769043 320.92016602 Z M118.6394043 457.04516602 C106.3444875 459.57437285 94.06066028 461.31712259 81.5769043 462.60766602 C80.79748474 462.68843384 80.01806519 462.76920166 79.21502686 462.85241699 C74.97776318 463.28649726 70.73959014 463.71143985 66.49716187 464.09225464 C64.88223429 464.23901808 63.26824279 464.39620697 61.65493774 464.55984497 C53.85887368 465.29966436 46.10143396 465.43113847 38.27645111 465.43326569 C34.42339386 465.43765823 30.57049287 465.46873246 26.7175293 465.49438477 C21.85028837 465.52475073 16.98331165 465.54747491 12.1159668 465.5456543 C8.14662005 465.54486477 4.17804525 465.56830831 0.20890045 465.60753632 C-1.29163894 465.61793864 -2.79226799 465.61956316 -4.29282379 465.61188507 C-15.96645857 465.49008643 -15.96645857 465.49008643 -25.7355957 471.29516602 C-30.14287179 476.3022108 -31.62275159 480.84747043 -31.27856445 487.54516602 C-30.18394109 493.0891577 -27.36810308 497.33974387 -22.8371582 500.70532227 C-15.70818792 504.63611813 -7.5436053 504.4511794 0.4050293 504.46313477 C1.27240219 504.46736954 2.13977509 504.47160431 3.03343201 504.47596741 C5.86047189 504.48586802 8.68735005 504.4858776 11.5144043 504.48266602 C12.9765184 504.48175964 12.9765184 504.48175964 14.46817017 504.48083496 C84.75750099 506.8283288 84.75750099 506.8283288 148.2644043 486.29516602 C153.39268966 480.87423394 154.63411093 477.43291456 154.5378418 470.04907227 C153.92034964 463.83004416 149.50517643 460.35592552 145.0456543 456.49438477 C137.4442113 451.37674661 126.74711666 455.32671412 118.6394043 457.04516602 Z " fill="#020202" transform="translate(596.735595703125,419.704833984375)"/>
<path d="M0 0 C1.56907761 -0.00230928 3.13815413 -0.00548892 4.70722842 -0.00945449 C8.98502262 -0.01774805 13.26272676 -0.01370203 17.54052114 -0.00748205 C22.16795025 -0.00293569 26.79536444 -0.00995242 31.42279053 -0.01544189 C40.47794093 -0.02431683 49.5330581 -0.02242162 58.58820978 -0.01661661 C65.95753924 -0.0120893 73.32685943 -0.01149185 80.69618988 -0.01366425 C81.74739843 -0.01397071 82.79860698 -0.01427718 83.88167034 -0.01459293 C86.01772112 -0.01523243 88.15377189 -0.01588086 90.28982267 -0.01653811 C110.30584412 -0.02223672 130.32184724 -0.01569263 150.33786568 -0.00493738 C167.46619945 0.00398204 184.59450608 0.00245847 201.72283936 -0.0067749 C221.65144254 -0.01751292 241.58002961 -0.02167101 261.50863528 -0.01555037 C263.64024528 -0.01491335 265.77185527 -0.0142846 267.90346527 -0.01366425 C268.95200275 -0.01335569 270.00054023 -0.01304714 271.08085157 -0.01272924 C278.42456389 -0.01101169 285.7682659 -0.01389732 293.11197662 -0.01862335 C302.08657054 -0.02427225 311.06112955 -0.0226331 320.03571954 -0.01206186 C324.6038776 -0.00685609 329.17197775 -0.00465954 333.74013519 -0.01136017 C391.32306825 -0.08853703 448.91531049 7.80948584 498.77459717 38.84771729 C501.18947652 40.30636924 503.65739528 41.58751152 506.16522217 42.87896729 C519.43016367 50.05477604 531.41694079 59.78264896 543.10272217 69.25396729 C543.67200439 69.70143311 544.24128662 70.14889893 544.82781982 70.60992432 C546.28998123 71.77956791 547.70128399 73.01221322 549.10272217 74.25396729 C549.10272217 74.91396729 549.10272217 75.57396729 549.10272217 76.25396729 C549.69440186 76.52982666 550.28608154 76.80568604 550.89569092 77.08990479 C556.61985106 80.10901934 560.89018071 84.99035105 565.02850342 89.86334229 C567.10704584 92.2589505 569.24917433 94.57830567 571.41522217 96.89434814 C580.08913179 106.17678674 587.95716437 115.80111181 595.09881592 126.30865479 C596.66763605 128.61448399 598.26664961 130.88045548 599.91522217 133.12896729 C604.23340903 139.29780566 607.61164894 146.03198062 611.10272217 152.69146729 C611.52811279 153.49906494 611.95350342 154.3066626 612.39178467 155.13873291 C613.63593548 157.50681751 614.87109961 159.87934633 616.10272217 162.25396729 C616.45334717 162.92315186 616.80397217 163.59233643 617.16522217 164.28179932 C642.99952368 214.52497457 649.82868834 279.00121661 640.10272217 334.25396729 C639.88042656 335.70655411 639.66153642 337.15966722 639.44647217 338.61334229 C632.62738389 382.87796233 611.80522591 443.4729888 575.63006592 472.21881104 C573.15932641 473.96398562 570.64416647 475.61406261 568.10272217 477.25396729 C567.45432373 477.73092041 566.80592529 478.20787354 566.13787842 478.69927979 C543.97276589 494.76349995 513.86860755 502.53555267 487.10272217 506.25396729 C485.85619873 506.42799072 484.60967529 506.60201416 483.32537842 506.78131104 C468.02297688 508.79896914 452.53361736 509.54149949 437.10272217 509.25396729 C438.73112515 505.85176819 440.58557601 503.08575671 443.10272217 500.25396729 C443.76272217 500.25396729 444.42272217 500.25396729 445.10272217 500.25396729 C445.41209717 499.63521729 445.72147217 499.01646729 446.04022217 498.37896729 C446.72772217 497.00396729 447.41522217 495.62896729 448.10272217 494.25396729 C448.76272217 494.25396729 449.42272217 494.25396729 450.10272217 494.25396729 C450.33733154 493.7344751 450.57194092 493.21498291 450.81365967 492.67974854 C452.18340188 490.10214273 453.77366582 487.73461935 455.42816162 485.33258057 C474.01370319 458.28700383 478.31630805 431.7903387 478.22772217 399.31646729 C478.22639282 397.90228516 478.22639282 397.90228516 478.22503662 396.45953369 C478.2109309 383.54954216 478.00798997 370.65718278 477.60272217 357.75396729 C477.20188052 344.74330035 476.93861164 331.73585398 476.87054443 318.71881104 C476.85876562 316.80063956 476.84176903 314.88249225 476.8192749 312.9644165 C476.78942673 310.29124204 476.77937759 307.61869548 476.77459717 304.94537354 C476.76229065 304.15333023 476.74998413 303.36128693 476.73730469 302.54524231 C476.76234852 296.26481935 478.25796011 292.20262005 482.66912842 287.54302979 C483.65887354 286.64504142 484.65800223 285.75731034 485.66522217 284.87896729 C486.19462402 284.40491455 486.72402588 283.93086182 487.26947021 283.44244385 C491.34222234 279.82899715 495.57822214 276.44251116 499.86444092 273.08599854 C502.56930833 270.87206692 504.98012034 268.4669517 507.40350342 265.95318604 C509.16411328 264.19257617 511.00940679 262.60546084 512.91522217 261.00396729 C518.21160871 256.44492083 524.9492486 250.56091441 528.10272217 244.25396729 C528.76272217 244.25396729 529.42272217 244.25396729 530.10272217 244.25396729 C530.35795654 243.68806885 530.61319092 243.12217041 530.87615967 242.53912354 C532.25117234 239.9773961 533.87490419 237.93182687 535.72772217 235.69146729 C547.45805372 222.42563159 547.45805372 222.42563159 551.97772217 206.00396729 C551.68897217 205.09646729 551.40022217 204.18896729 551.10272217 203.25396729 C550.85522217 202.18146729 550.60772217 201.10896729 550.35272217 200.00396729 C549.35374989 197.05957584 549.35374989 197.05957584 546.60272217 195.94146729 C545.77772217 195.71459229 544.95272217 195.48771729 544.10272217 195.25396729 C543.44272217 194.92396729 542.78272217 194.59396729 542.10272217 194.25396729 C535.93775183 193.73151217 532.20798076 194.53461211 527.10272217 198.25396729 C524.95381638 200.32031247 523.08716854 202.55206233 521.22772217 204.87896729 C520.74303467 205.46420166 520.25834717 206.04943604 519.75897217 206.65240479 C517.1750658 209.78139329 517.1750658 209.78139329 515.10272217 213.25396729 C514.44272217 213.25396729 513.78272217 213.25396729 513.10272217 213.25396729 C512.87584717 213.79021729 512.64897217 214.32646729 512.41522217 214.87896729 C510.64702128 218.0785689 508.56602014 220.54433952 506.10272217 223.25396729 C505.44272217 223.25396729 504.78272217 223.25396729 504.10272217 223.25396729 C504.10272217 223.91396729 504.10272217 224.57396729 504.10272217 225.25396729 C503.44272217 225.25396729 502.78272217 225.25396729 502.10272217 225.25396729 C501.86553467 225.81599854 501.62834717 226.37802979 501.38397217 226.95709229 C499.8132452 229.7729077 497.88800752 231.73352145 495.60272217 234.00396729 C494.41162842 235.20279541 494.41162842 235.20279541 493.19647217 236.42584229 C491.10272217 238.25396729 491.10272217 238.25396729 489.10272217 238.25396729 C488.75080811 239.12021729 488.75080811 239.12021729 488.39178467 240.00396729 C483.94952115 247.75773633 473.90067009 252.94344842 465.51312256 255.23443604 C461.1520265 256.30669864 456.82048554 256.90379324 452.35662842 257.35552979 C451.12910606 257.48213486 451.12910606 257.48213486 449.87678528 257.61129761 C439.76481996 258.57739937 429.62691598 258.61163122 419.47601318 258.63482666 C405.59459331 258.68780412 395.93140936 259.71075391 385.47772217 269.70709229 C381.55149961 273.91744937 378.29890973 278.4758283 375.10272217 283.25396729 C374.43369873 284.24912354 373.76467529 285.24427979 373.07537842 286.26959229 C371.72562574 288.29033526 370.38180103 290.31505121 369.04412842 292.34381104 C367.23375361 295.05755194 365.36976102 297.72179624 363.47772217 300.37896729 C360.72454128 304.28291591 358.26013418 308.28737409 355.84490967 312.40631104 C353.24049935 316.66329561 350.43484814 320.78297548 347.61712646 324.90118408 C341.92290966 333.26514961 341.92290966 333.26514961 341.45819092 343.07037354 C342.69299447 347.25373828 345.20353921 350.07963241 348.93475342 352.38677979 C353.17276437 354.08198416 357.63795011 353.91948324 362.10272217 353.25396729 C364.5925337 351.84454735 366.07795669 350.33064983 368.10272217 348.25396729 C368.76272217 348.25396729 369.42272217 348.25396729 370.10272217 348.25396729 C370.17619873 347.72287354 370.24967529 347.19177979 370.32537842 346.64459229 C371.41315893 343.29925724 373.42988605 340.76490781 375.54022217 338.00396729 C375.94821045 337.44967041 376.35619873 336.89537354 376.77655029 336.32427979 C377.83225526 334.9258582 378.96259804 333.58446076 380.10272217 332.25396729 C380.76272217 332.25396729 381.42272217 332.25396729 382.10272217 332.25396729 C382.28834717 331.59396729 382.47397217 330.93396729 382.66522217 330.25396729 C384.71080991 325.9849146 387.6745686 322.51233023 391.10272217 319.25396729 C391.76272217 319.25396729 392.42272217 319.25396729 393.10272217 319.25396729 C398.6323819 335.84294648 393.87951613 360.34045078 391.10272217 377.25396729 C390.77272217 377.91396729 390.44272217 378.57396729 390.10272217 379.25396729 C371.62272217 379.58396729 353.14272217 379.91396729 334.10272217 380.25396729 C329.52014203 369.5612803 327.53858425 358.63412103 325.496521 347.24639893 C325.23347184 345.91549738 324.93608538 344.59093776 324.60540771 343.27520752 C322.82003848 336.15112861 322.45648021 329.00565153 322.04022217 321.69146729 C321.95728966 320.2963522 321.87411557 318.90125146 321.79071045 317.50616455 C321.54994932 313.42269645 321.32602651 309.33842554 321.10272217 305.25396729 C321.0419751 304.20724854 320.98122803 303.16052979 320.91864014 302.08209229 C320.52157555 295.14116623 320.27986453 288.20375891 320.10272217 281.25396729 C320.08127136 280.52429749 320.05982056 279.79462769 320.03771973 279.04284668 C319.88870603 273.97340338 319.77811791 268.90499148 319.70776367 263.83383179 C319.67967175 262.13023995 319.64141812 260.42678172 319.59240723 258.72366333 C319.17087957 243.44337993 319.17087957 243.44337993 322.80194092 238.44146729 C324.45599365 236.71490479 324.45599365 236.71490479 326.10272217 235.25396729 C327.40983154 233.92365479 327.40983154 233.92365479 328.74334717 232.56646729 C344.67222263 218.4498591 344.67222263 218.4498591 349.30975342 216.16802979 C351.64515613 214.97743232 352.14935196 213.63739279 353.10272217 211.25396729 C353.76272217 211.25396729 354.42272217 211.25396729 355.10272217 211.25396729 C355.10272217 210.59396729 355.10272217 209.93396729 355.10272217 209.25396729 C359.40504775 204.48652542 359.40504775 204.48652542 363.10272217 203.25396729 C364.1529332 201.40425032 364.1529332 201.40425032 365.10272217 199.25396729 C366.60272217 197.00396729 366.60272217 197.00396729 368.10272217 195.25396729 C368.76272217 195.25396729 369.42272217 195.25396729 370.10272217 195.25396729 C370.41209717 194.63521729 370.72147217 194.01646729 371.04022217 193.37896729 C371.72772217 192.00396729 372.41522217 190.62896729 373.10272217 189.25396729 C373.76272217 189.25396729 374.42272217 189.25396729 375.10272217 189.25396729 C375.31541748 188.58752197 375.52811279 187.92107666 375.74725342 187.23443604 C377.56662175 183.23392297 380.10911416 180.02910457 382.79022217 176.56646729 C383.87473687 175.14419024 384.95807299 173.72101373 386.04022217 172.29693604 C386.56487061 171.607771 387.08951904 170.91860596 387.63006592 170.20855713 C396.03684687 159.40094951 396.03684687 159.40094951 397.10272217 146.25396729 C395.10615089 142.39851931 393.70564579 140.65591637 390.10272217 138.25396729 C385.15911257 137.55918972 379.76303102 137.13437784 375.07928467 139.10552979 C373.12211979 140.66171454 371.67904356 142.3049365 370.10272217 144.25396729 C369.69843994 144.74800049 369.29415771 145.24203369 368.87762451 145.7510376 C365.53632583 149.85582122 362.31440052 154.04758358 359.10272217 158.25396729 C357.58927774 160.21801653 356.06941818 162.1771571 354.54022217 164.12896729 C353.92018311 164.93076416 353.30014404 165.73256104 352.66131592 166.55865479 C352.14697998 167.11810791 351.63264404 167.67756104 351.10272217 168.25396729 C350.44272217 168.25396729 349.78272217 168.25396729 349.10272217 168.25396729 C349.10272217 168.91396729 349.10272217 169.57396729 349.10272217 170.25396729 C348.44272217 170.25396729 347.78272217 170.25396729 347.10272217 170.25396729 C346.84104248 170.83275635 346.57936279 171.41154541 346.30975342 172.00787354 C345.02979478 174.3896736 343.58916162 176.17713375 341.79022217 178.19146729 C341.21658936 178.83986572 340.64295654 179.48826416 340.05194092 180.15631104 C328.51545461 192.57132736 315.55925302 204.70413694 298.10272217 207.25396729 C297.29061279 207.37513916 296.47850342 207.49631104 295.64178467 207.62115479 C287.75940961 208.48758207 279.89106739 208.24307315 271.97772217 208.00396729 C270.88153564 207.9777832 269.78534912 207.95159912 268.65594482 207.92462158 C252.56470184 207.31149516 237.73741471 201.68273606 226.10272217 190.25396729 C226.10272217 189.59396729 226.10272217 188.93396729 226.10272217 188.25396729 C225.55100342 188.02709229 224.99928467 187.80021729 224.43084717 187.56646729 C221.415798 185.86670802 219.29041848 183.70591913 216.85272217 181.25396729 C215.51467529 179.92365479 215.51467529 179.92365479 214.14959717 178.56646729 C212.10272217 176.25396729 212.10272217 176.25396729 212.10272217 174.25396729 C211.44272217 174.25396729 210.78272217 174.25396729 210.10272217 174.25396729 C210.02022217 173.63521729 209.93772217 173.01646729 209.85272217 172.37896729 C209.60522217 171.67771729 209.35772217 170.97646729 209.10272217 170.25396729 C208.53166748 170.00904541 207.96061279 169.76412354 207.37225342 169.51177979 C204.10995286 167.70375779 202.24149828 164.93213961 200.04022217 162.00396729 C199.0702289 160.74350536 198.10017495 159.48309012 197.13006592 158.22271729 C196.38539063 157.24625244 196.38539063 157.24625244 195.62567139 156.25006104 C193.13618624 152.98715136 190.62303298 149.74309165 188.10272217 146.50396729 C187.64631348 145.90809814 187.18990479 145.312229 186.71966553 144.69830322 C183.52525165 140.58735622 181.52663903 138.53408208 176.29022217 137.50396729 C171.13547869 136.98471657 167.67345408 138.21871216 163.35272217 141.06646729 C160.35733479 143.97864946 159.21820606 146.01535645 159.00115967 150.22271729 C160.04779628 173.08770183 191.23012209 201.29026596 207.31854248 216.01739502 C212.94318525 221.08748369 218.8353452 225.79425654 224.88397217 230.34771729 C225.61615967 230.97677979 226.34834717 231.60584229 227.10272217 232.25396729 C227.10272217 232.91396729 227.10272217 233.57396729 227.10272217 234.25396729 C227.65959717 234.43959229 228.21647217 234.62521729 228.79022217 234.81646729 C232.98529157 237.42421313 235.55980233 241.62520778 237.10272217 246.25396729 C237.1976252 248.0397558 237.23344744 249.82894127 237.23553467 251.61724854 C237.23762939 252.71641602 237.23972412 253.8155835 237.24188232 254.94805908 C237.23720947 256.14213379 237.23253662 257.3362085 237.22772217 258.56646729 C237.22433838 259.80888184 237.22095459 261.05129639 237.21746826 262.33135986 C236.86213937 328.3192403 236.86213937 328.3192403 230.09490967 351.74224854 C228.96316172 355.74792334 228.33857524 359.70644497 227.72772217 363.81646729 C226.47059696 371.8590695 224.56341852 379.48466206 222.10272217 387.25396729 C220.31608154 387.50920166 220.31608154 387.50920166 218.49334717 387.76959229 C217.28678467 387.94216553 217.28678467 387.94216553 216.05584717 388.1182251 C214.22787737 388.37908061 212.39974741 388.63881589 210.57147217 388.89752197 C204.92663552 389.69832717 199.2866723 390.52512901 193.64959717 391.37896729 C192.39759521 391.56555908 191.14559326 391.75215088 189.85565186 391.94439697 C187.38133259 392.31332358 184.90798355 392.68882564 182.43572998 393.0713501 C181.2945874 393.23989502 180.15344482 393.40843994 178.97772217 393.58209229 C177.96451904 393.73581299 176.95131592 393.88953369 175.90740967 394.0479126 C173.07345279 394.25611765 170.84492536 393.95081837 168.10272217 393.25396729 C167.40213176 388.93578278 166.70873505 384.61651663 166.02142334 380.29620361 C165.78762587 378.83268596 165.55200833 377.36945767 165.31439209 375.90655518 C163.10527631 362.29223701 161.92779256 348.94282643 161.97772217 335.12896729 C161.97385498 334.02037354 161.96998779 332.91177979 161.96600342 331.76959229 C161.96793701 330.18017822 161.96793701 330.18017822 161.96990967 328.55865479 C161.9710376 327.60974365 161.97216553 326.66083252 161.97332764 325.6831665 C162.10272217 323.25396729 162.10272217 323.25396729 163.10272217 320.25396729 C165.91322393 320.5982381 166.99454127 321.14356502 169.00506592 323.19537354 C169.67666748 324.06033447 170.34826904 324.92529541 171.04022217 325.81646729 C171.81752686 326.79873291 172.59483154 327.78099854 173.39569092 328.79302979 C173.822854 329.33991455 174.25001709 329.88679932 174.69012451 330.45025635 C177.38192972 333.8873557 180.1164888 337.28971611 182.85272217 340.69146729 C183.39533691 341.3773291 183.93795166 342.06319092 184.49700928 342.76983643 C187.87646713 346.97846265 191.18640118 350.79580679 196.10272217 353.25396729 C201.34580785 353.65728157 204.6639977 353.11447861 209.10272217 350.25396729 C213.01148346 345.9226372 214.43492013 343.29136884 214.34832764 337.38043213 C213.95124446 333.94246548 212.44490744 331.49791768 210.66522217 328.56646729 C210.30976318 327.97341797 209.9543042 327.38036865 209.58807373 326.76934814 C206.30912867 321.38220407 202.70274718 316.22306138 199.05975342 311.07818604 C197.58807776 308.95439062 196.26264419 306.8961024 195.04022217 304.62896729 C192.6588532 300.48077618 189.8638666 296.7324295 187.00506592 292.90240479 C185.21866334 290.41538026 183.653609 287.89211605 182.10272217 285.25396729 C180.3197666 282.45444908 178.52273039 279.66434563 176.72381592 276.87506104 C175.10272217 274.25396729 175.10272217 274.25396729 173.99334717 271.97271729 C172.7784052 269.62809243 171.49868867 269.35481676 169.10272217 268.25396729 C167.4021204 267.02506528 165.73585937 265.76029193 164.07928467 264.47271729 C153.1760127 257.74975117 136.78247334 260.00320064 124.31756592 259.70172119 C98.95796971 259.07463499 83.15229815 255.03488882 65.27069092 236.45318604 C63.41458368 234.5703241 61.54396281 232.89636369 59.47772217 231.25396729 C58.69397217 230.59396729 57.91022217 229.93396729 57.10272217 229.25396729 C57.10272217 228.59396729 57.10272217 227.93396729 57.10272217 227.25396729 C56.11272217 226.92396729 55.12272217 226.59396729 54.10272217 226.25396729 C52.45428467 224.54693604 52.45428467 224.54693604 50.72772217 222.44146729 C48.06055979 219.28784133 45.3380677 216.8256522 42.10272217 214.25396729 C36.10272217 207.95396729 36.10272217 207.95396729 36.10272217 205.25396729 C35.44272217 205.25396729 34.78272217 205.25396729 34.10272217 205.25396729 C34.10272217 204.59396729 34.10272217 203.93396729 34.10272217 203.25396729 C33.44272217 203.25396729 32.78272217 203.25396729 32.10272217 203.25396729 C31.38084717 202.32584229 30.65897217 201.39771729 29.91522217 200.44146729 C27.12022868 196.97436392 24.39825116 195.58706249 20.10272217 194.25396729 C14.87123252 193.70328416 11.49686964 194.32453564 7.10272217 197.25396729 C4.17150298 200.49373586 2.81278613 203.19382635 2.47772217 207.50396729 C2.98809721 217.05755019 10.70847271 224.44321576 16.64178467 231.35552979 C18.81568069 233.91589621 20.88213335 236.51915403 22.91522217 239.19146729 C24.83317442 241.70025791 26.76320031 244.00349098 29.04022217 246.19146729 C29.72084717 246.87209229 30.40147217 247.55271729 31.10272217 248.25396729 C31.10272217 248.91396729 31.10272217 249.57396729 31.10272217 250.25396729 C31.76272217 250.25396729 32.42272217 250.25396729 33.10272217 250.25396729 C33.10272217 250.91396729 33.10272217 251.57396729 33.10272217 252.25396729 C33.76272217 252.25396729 34.42272217 252.25396729 35.10272217 252.25396729 C36.58319092 253.75787354 36.58319092 253.75787354 38.29022217 255.81646729 C43.96249448 262.457461 49.94233947 268.01788282 56.81756592 273.41021729 C59.43847232 275.52486314 61.75473539 277.84252141 64.10272217 280.25396729 C65.26096237 281.26371515 66.42828022 282.26311048 67.60272217 283.25396729 C78.05726762 292.11760365 78.05726762 292.11760365 80.10272217 298.25396729 C80.14066112 300.32213899 80.11211523 302.39174763 80.04852295 304.45928955 C80.01163361 305.74235489 79.97474426 307.02542023 79.93673706 308.34736633 C79.89068012 309.75504121 79.84444106 311.16271014 79.79803467 312.57037354 C79.75375051 314.02510863 79.70988333 315.47985647 79.66641235 316.93461609 C79.57381742 319.99552661 79.47760763 323.05629466 79.37860107 326.11700439 C79.25350735 329.98647669 79.13499795 333.85611249 79.01881981 337.72586155 C78.74287315 346.9030085 78.43465419 356.07868289 78.10272217 365.25396729 C78.06930725 366.22462128 78.03589233 367.19527527 78.00146484 368.19534302 C77.61159296 379.0163009 76.39876093 389.57262986 74.62860107 400.25518799 C74.21971969 402.74010111 73.8345441 405.22801656 73.45037842 407.71685791 C73.19265712 409.31148476 72.93359556 410.90589571 72.67303467 412.50006104 C72.5604129 413.23744003 72.44779114 413.97481903 72.33175659 414.73454285 C71.86614072 417.45808419 71.45165715 419.74836621 69.86566162 422.04644775 C67.44617014 423.70367042 64.94895809 425.01548078 62.32537842 426.32818604 C61.17102295 426.91406494 60.01666748 427.49994385 58.82733154 428.10357666 C56.42266602 429.31249535 54.01562665 430.51658069 51.60858154 431.72076416 C39.64253645 437.79970028 28.84066758 445.23728201 18.10272217 453.25396729 C17.3191333 453.8381543 17.3191333 453.8381543 16.51971436 454.43414307 C9.86314452 459.41569369 3.47295042 464.54792763 -2.64727783 470.18756104 C-4.63174604 472.01010215 -6.65513675 473.76180287 -8.70977783 475.50396729 C-17.38215539 483.06585747 -25.53052205 491.42052709 -32.89727783 500.25396729 C-34.03036377 501.58814697 -34.03036377 501.58814697 -35.18634033 502.94927979 C-44.73177842 514.26786427 -53.66161832 525.94087937 -61.89727783 538.25396729 C-62.39131104 538.99034424 -62.88534424 539.72672119 -63.39434814 540.4854126 C-71.15949158 552.10713366 -78.30366363 563.93001117 -84.89727783 576.25396729 C-85.88727783 576.25396729 -86.87727783 576.25396729 -87.89727783 576.25396729 C-87.98293334 528.30991108 -88.06252806 480.36584921 -88.10899353 432.42173767 C-88.10968382 431.71130967 -88.1103741 431.00088168 -88.1110853 430.26892556 C-88.12605243 414.8266548 -88.13990297 399.38438322 -88.15260448 383.94211044 C-88.15884076 376.36840955 -88.16532358 368.79470887 -88.17193604 361.2210083 C-88.17258983 360.46736384 -88.17324363 359.71371938 -88.17391723 358.9372372 C-88.19519574 334.54207588 -88.23273111 310.14697275 -88.27876394 285.75184663 C-88.32601162 260.66714004 -88.35672465 235.58246561 -88.36685278 210.49771528 C-88.3682934 206.94863839 -88.36992158 203.3995616 -88.37166405 199.85048485 C-88.37200116 199.15202659 -88.37233828 198.45356833 -88.37268561 197.73394467 C-88.37857715 186.52425763 -88.40172113 175.3146705 -88.431438 164.10502409 C-88.46099486 152.81519349 -88.4716851 141.52545919 -88.46478472 130.23558185 C-88.46159265 124.12668693 -88.46637227 118.0180834 -88.49330521 111.90924072 C-88.51783995 106.30305719 -88.51873545 100.69735788 -88.50177231 95.0911509 C-88.49967933 93.07597592 -88.50584919 91.0607693 -88.52169374 89.04565553 C-88.69426889 65.71800785 -84.28555436 42.88032434 -67.89727783 25.25396729 C-58.86801978 16.13992746 -49.58178572 9.33312682 -37.52227783 4.94146729 C-36.86340576 4.69880127 -36.20453369 4.45613525 -35.5256958 4.20611572 C-23.99342078 0.27775222 -12.05933724 -0.03906901 0 0 Z M261.10272217 125.25396729 C259.77312873 125.92806186 258.44075826 126.59679027 257.10272217 127.25396729 C257.10272217 127.91396729 257.10272217 128.57396729 257.10272217 129.25396729 C256.51748779 129.48470947 255.93225342 129.71545166 255.32928467 129.95318604 C252.53600937 131.58504687 251.29279889 133.39982373 249.47772217 136.06646729 C248.59213623 137.34457275 248.59213623 137.34457275 247.68865967 138.64849854 C244.1986379 144.38210573 243.7379806 148.97542399 243.72772217 155.56646729 C243.70322998 156.38308838 243.67873779 157.19970947 243.65350342 158.04107666 C243.60582149 168.01454596 248.21465923 173.97749558 254.88006592 181.05474854 C261.55051875 187.65486267 269.37109625 190.34259366 278.66522217 190.62896729 C283.90280071 190.47361538 288.3010831 189.29301949 293.10272217 187.25396729 C294.17522217 186.80021729 295.24772217 186.34646729 296.35272217 185.87896729 C302.94764747 181.98196597 308.23053934 175.24053955 310.92694092 168.05865479 C313.31681477 158.60085612 313.48416197 147.16509883 308.55194092 138.54302979 C304.80196931 132.79494268 304.80196931 132.79494268 299.10272217 129.25396729 C299.10272217 128.59396729 299.10272217 127.93396729 299.10272217 127.25396729 C297.49981687 126.43898167 295.89534939 125.62706801 294.29022217 124.81646729 C293.39690186 124.36400635 292.50358154 123.91154541 291.58319092 123.44537354 C282.18849299 118.93295957 269.92352699 119.99983572 261.10272217 125.25396729 Z M93.21600342 186.67974854 C87.55464036 195.4939288 85.97045776 204.6195904 87.49725342 214.91412354 C89.1264073 222.38721004 92.64437303 227.90566551 98.10272217 233.25396729 C99.09272217 233.58396729 100.08272217 233.91396729 101.10272217 234.25396729 C101.10272217 234.91396729 101.10272217 235.57396729 101.10272217 236.25396729 C110.99487511 241.55333493 120.05576512 244.06074667 131.16522217 241.06646729 C141.63394355 237.56066292 147.42407457 231.67331064 152.41522217 221.94146729 C155.96966082 214.54763499 156.9235709 205.17314376 154.47576904 197.21588135 C149.87093462 185.89613482 143.96282396 179.14187909 132.86834717 174.27349854 C118.02469143 168.66764983 102.81958473 174.33228685 93.21600342 186.67974854 Z M407.10272217 186.25396729 C404.96549531 189.46464293 403.42416829 192.63643379 402.10272217 196.25396729 C401.84877686 196.9204126 401.59483154 197.58685791 401.33319092 198.27349854 C398.48432806 207.29796087 400.86332745 216.16755674 404.66522217 224.52740479 C409.28495886 233.28984013 416.37831264 237.87779729 425.41522217 241.62896729 C436.88657187 243.57326384 445.96465717 242.1639898 455.97381592 236.12506104 C462.75953668 231.06661465 467.54892249 222.48525316 469.10272217 214.25396729 C470.1261196 204.43693264 469.03006684 195.01643689 463.37225342 186.71490479 C456.40316234 178.39650865 448.60194388 173.17748204 437.80194092 172.00396729 C424.9981783 171.35050572 415.35825377 176.70936596 407.10272217 186.25396729 Z " fill="#030303" transform="translate(221.89727783203125,3.74603271484375)"/>
<path d="M0 0 C0.99 0.33 1.98 0.66 3 1 C4.16592352 3.54545135 5.14482498 5.99167169 6.0625 8.625 C6.31837891 9.32496094 6.57425781 10.02492188 6.83789062 10.74609375 C8.41533264 15.11751404 9.77260319 19.51584511 11 24 C11.20536377 24.74636719 11.41072754 25.49273437 11.62231445 26.26171875 C12.29875944 28.73466886 12.96296854 31.21065555 13.625 33.6875 C13.85445312 34.52861328 14.08390625 35.36972656 14.3203125 36.23632812 C14.536875 37.04908203 14.7534375 37.86183594 14.9765625 38.69921875 C15.17330566 39.42971436 15.37004883 40.16020996 15.57275391 40.9128418 C16 43 16 43 16 47 C12.29204724 47.33765809 8.58358419 47.66935514 4.875 48 C3.30492187 48.14308594 3.30492187 48.14308594 1.703125 48.2890625 C-3.2117833 48.7245607 -8.05972054 49.13675514 -13 49 C-13.92573669 46.02112788 -14.02344632 44.06549124 -13.28515625 41.04296875 C-13.09727539 40.27065918 -12.90939453 39.49834961 -12.71582031 38.70263672 C-12.50022461 37.8726416 -12.28462891 37.04264648 -12.0625 36.1875 C-11.84303711 35.32398926 -11.62357422 34.46047852 -11.39746094 33.57080078 C-8.45141666 22.39058268 -5.18553963 10.37107927 0 0 Z " fill="#131313" transform="translate(499,338)"/>
</svg>
