<?xml version="1.0" encoding="UTF-8"?>
<svg version="1.1" xmlns="http://www.w3.org/2000/svg" viewBox="0 0 2048 2048" width="2048" height="2048">
  <defs>
    <linearGradient id="ai-gradient" x1="0%" y1="0%" x2="100%" y2="100%">
      <stop offset="0%" style="stop-color:oklch(0.5 0.2 260)" />
      <stop offset="100%" style="stop-color:oklch(0.6 0.15 320)" />
    </linearGradient>
    <filter id="shadow" x="-20%" y="-20%" width="140%" height="140%">
      <feGaussianBlur in="SourceAlpha" stdDeviation="10" />
      <feOffset dx="5" dy="5" result="offsetblur" />
      <feComponentTransfer>
        <feFuncA type="linear" slope="0.3" />
      </feComponentTransfer>
      <feMerge>
        <feMergeNode />
        <feMergeNode in="SourceGraphic" />
      </feMerge>
    </filter>
  </defs>
  <!-- Background Shape -->
  <rect width="2048" height="2048" rx="450" fill="url(#ai-gradient)" opacity="0.08" />
  
  <!-- Main Logo paths with gradient and shadow -->
  <g fill="url(#ai-gradient)" filter="url(#shadow)">
    <path d="M404 158 C403.3503125 158.57492188 402.700625 159.14984375 402.03125 159.7421875 C379.48505452 180.53273661 365.45709976 214.83279924 363 245 C362.86383249 248.91013005 362.86446026 252.8165026 363 256.7 L363 1709 C362.63122538 1671.92190737 362.63930925 1709.09716258 362.63930925 1709.09716258 C370.67211914 1924.17553711 373.929034 1930.29456715 383 1940 C397.74497386 1952.76295454 412.79424425 1955.30784424 428.84041405 1955.26006222 C430.24146004 1955.26306229 431.64250439 1955.26693435 433.04354584 1955.27159455 C448.77671285 1955.27317104 452.96469854 1955.28234471 457.15269816 1955.29002339 C511.92603333 1955.32811778 533.70557054 1955.35286455 577.26464946 1955.36665427 C578.95729289 1955.36704603 621.72533035 1955.3844471 621.72533035 1955.3844471 C735.42888451 1955.42332363 768.64372339 1955.42580384 768.64372339 1955.42580384 C883.62695312 1955.48706055 1012.90610564 1955.55178314 1012.90610564 1955.55178314 C1139.61279772 1955.60653328 1278.83198312 1950.35419269 1278.83198312 1950.35419269 C1346.44921875 1936.7109375 1417.42970232 1919.69137089 1543 1839 C1581 1807 1644 1740 1687.9 1674.9 C1746 1519 1754.4 1423.25 1754.4 1423.25 C1752 1374 1680.5 1166.3 1680.5 1166.3 C1652 1125 1602.6 1069.4 1602.6 1069.4 C1580.1 1048.6 1542.7 1018.2 1542.7 1018.2 C1541.1 1016.8 1539 1017 1539 1017 C1550 1005 1661.9 823.1 1661.9 823.1 C1685 740 1690.1 709.1 1690.1 709.1 C1691.6 696 1691.5 587.75 1691.5 587.75 C1687.9 557.5 1668.5 473.9 1668.5 473.9 C1607 349 1581.7 315.2 1581.7 315.2 C1528 257.75 1496.5 231.1 1496.5 231.1 C1363 155 1286.4 131 1286.4 131 C1237 122 1173.6 118.85 1173.6 118.85 C1051.9 118.77 919.9 118.71 919.9 118.71 C891 118.7 787.5 118.64 787.5 118.64 C678 118.58 615.3 118.54 615.3 118.54 C567.5 118.53 520.1 118.5 520.1 118.5 C509.3 118.5 468.6 118.3 404 158 Z" />
    <path d="M1024 400 L1024 1648 M624 800 L1424 800 M824 600 C824 500 1224 500 1224 600 L1224 1448 C1224 1548 824 1548 824 1448 Z" stroke="white" stroke-width="80" fill="none" stroke-linecap="round" />
  </g>
</svg>
