<?xml version="1.0" encoding="UTF-8"?>
<svg version="1.1" xmlns="http://www.w3.org/2000/svg" viewBox="0 0 1024 1018" width="1024" height="1018">
  <defs>
    <linearGradient id="logo-gradient" x1="0%" y1="0%" x2="100%" y2="100%">
      <stop offset="0%" style="stop-color:oklch(0.5 0.2 260)" />
      <stop offset="100%" style="stop-color:oklch(0.6 0.15 320)" />
    </linearGradient>
  </defs>
  <path d="M0 0 C3.50928278 -0.0090147 7.01818924 -0.03030063 10.52734375 -0.06152344 C14.83904792 -0.09987774 19.15041367 -0.11874851 23.46228218 -0.12328148 C25.08538799 -0.12813119 26.70848904 -0.13969883 28.33149529 -0.15831947 C30.578994 -0.18261851 32.82516467 -0.18177026 35.07275391 -0.17480469 C36.34509384 -0.18067093 37.61743378 -0.18653717 38.92832947 -0.19258118 C42.85008395 0.38079467 44.4670545 1.54751203 47.2644043 4.29516602 C48.5925293 6.29516602 48.5925293 6.29516602 49.5144043 8.29516602 C49.82893555 8.95516602 50.1434668 9.61516602 50.4675293 10.29516602 C54.23034479 19.73909509 53.69960323 32.80092001 50.2019043 42.17016602 C49.26748409 44.23269578 48.28738754 46.27509784 47.2644043 48.29516602 C46.74491211 49.38313477 46.22541992 50.47110352 45.69018555 51.59204102 C42.2428954 58.43840746 38.18356075 64.25125647 33.18237305 70.05297852 C31.14656874 72.34264146 31.14656874 72.34264146 29.2644043 75.29516602 C28.6044043 75.29516602 27.9444043 75.29516602 27.2644043 75.29516602 C26.87381836 76.19428711 26.87381836 76.19428711 26.4753418 77.11157227 C25.18156179 79.44454976 23.96971666 80.59294383 21.8894043 82.23266602 C19.70063134 83.96343582 18.09623557 85.51518677 16.3894043 87.74829102 C0.03725886 107.34681826 -36.86598623 113.30617547 -60.66357422 115.57421875 C-68.95421917 116.26705318 -77.23349751 116.52288427 -85.5480957 116.73266602 C-104.92853234 116.31360492 -104.92853234 116.31360492 -122.7355957 122.29516602 C-124.67791766 125.13764337 -126.09157807 128.18222243 -127.5480957 131.29516602 C-131.48137848 139.18242139 -135.64294187 145.85436054 -141.7355957 152.29516602 C-142.20835937 152.80208984 -142.68112305 153.30901367 -143.16821289 153.83129883 C-151.02757424 162.2028997 -159.47613088 169.51688876 -168.7355957 176.29516602 C-169.71012695 177.01446289 -170.6846582 177.73375977 -171.6887207 178.47485352 C-189.59636266 191.04934527 -209.34120312 197.33392732 -231.08789062 198.57592773 C-237.75283949 198.9938434 -244.51800111 199.7304167 -249.8918457 204.01391602 C-250.3352832 204.60172852 -250.7787207 205.18954102 -251.2355957 205.79516602 C-251.6996582 206.38297852 -252.1637207 206.97079102 -252.6418457 207.57641602 C-255.34403051 211.82270642 -255.31707112 216.44146151 -254.7355957 221.29516602 C-252.62474782 227.18030169 -248.70549704 230.84643365 -243.1730957 233.54516602 C-212.82369262 240.16685396 -174.18821693 225.66432169 -149.0480957 209.54516602 C-145.88988737 207.48175376 -142.88618289 205.41835441 -139.96606445 203.02954102 C-137.7355957 201.29516602 -137.7355957 201.29516602 -135.7355957 201.29516602 C-135.7355957 200.63516602 -135.7355957 199.97516602 -135.7355957 199.29516602 C-134.2668457 197.84985352 -134.2668457 197.84985352 -132.2355957 196.17016602 C-120.31809213 185.94323651 -111.42208686 174.04638679 -103.27075195 160.66235352 C-102.51084961 159.4905957 -102.51084961 159.4905957 -101.7355957 158.29516602 C-101.2118335 157.43898682 -100.68807129 156.58280762 -100.1484375 155.70068359 C-96.87590395 152.43808387 -93.98550311 152.50706544 -89.5949707 152.43969727 C-88.39520599 152.39083626 -88.39520599 152.39083626 -87.17120361 152.34098816 C-84.60955794 152.24055311 -82.04836514 152.17260431 -79.4855957 152.10766602 C-76.14664222 151.99961449 -72.80829224 151.87816702 -69.4699707 151.75219727 C-68.65214111 151.72317322 -67.83431152 151.69414917 -66.99169922 151.66424561 C-60.25893348 151.39395087 -53.6523482 150.66572013 -46.98071289 149.74072266 C-44.39389992 149.3855516 -41.83796999 149.11012034 -39.2355957 148.92016602 C-22.49356665 147.00768704 -6.08259914 140.33193652 9.5222168 134.29516602 C10.64200928 133.86204102 10.64200928 133.86204102 11.78442383 133.42016602 C14.43324347 132.32742689 14.43324347 132.32742689 17.05908203 130.18798828 C22.49149706 127.05770704 28.90417983 127.84254432 34.9754467 127.96394157 C37.33930086 128.01095553 39.70228738 128.032788 42.06654358 128.04872131 C47.11203983 128.08746816 52.15681749 128.1589473 57.2019043 128.23266602 C63.79422071 128.32515108 70.38641833 128.40309992 76.97924805 128.44750977 C77.77886208 128.45294296 78.5784761 128.45837616 79.40232086 128.463974 C92.87428568 128.52841166 105.96942105 127.58482216 119.2644043 125.29516602 C120.21148758 125.13565964 121.15857086 124.97615326 122.13435364 124.81181335 C144.76610085 120.96573531 166.85256872 114.58143162 187.85424805 105.24047852 C195.81254133 102.11907337 205.28830248 102.27718154 213.2644043 105.29516602 C216.40480861 106.75071849 219.47386281 108.23737065 222.2644043 110.29516602 C222.5944043 111.28516602 222.9244043 112.27516602 223.2644043 113.29516602 C225.26456896 114.50398698 225.26456896 114.50398698 227.2644043 115.29516602 C227.2644043 115.95516602 227.2644043 116.61516602 227.2644043 117.29516602 C227.9244043 117.29516602 228.5844043 117.29516602 229.2644043 117.29516602 C229.2644043 117.95516602 229.2644043 118.61516602 229.2644043 119.29516602 C229.9244043 119.29516602 230.5844043 119.29516602 231.2644043 119.29516602 C233.03103473 121.36378456 234.68813468 123.44095377 236.3269043 125.60766602 C237.33216205 126.91852343 238.3386848 128.22841167 239.34643555 129.53735352 C240.09401123 130.50946777 240.09401123 130.50946777 240.85668945 131.5012207 C242.66871788 133.81040989 244.59265 136.01441249 246.5144043 138.23266602 C265.88439553 161.81806901 279.02144308 189.65972185 288.63696289 218.42260742 C289.19437271 220.08616124 289.76917142 221.74386588 290.34643555 223.40063477 C298.84413147 249.02914398 301.48841161 275.96104162 301.4519043 302.79516602 C301.45096771 303.68356171 301.45003113 304.5719574 301.44906616 305.48727417 C301.40025562 326.83912258 299.32056769 346.51697214 294.2644043 367.29516602 C294.06443848 368.13321777 293.86447266 368.97126953 293.65844727 369.8347168 C289.54890403 386.91382766 284.0970934 403.54623912 276.2644043 419.29516602 C275.77069336 420.30836914 275.27698242 421.32157227 274.76831055 422.36547852 C268.18766558 435.73187945 261.15141518 448.59378518 251.8112793 460.24829102 C250.44505857 462.05611844 249.37364269 463.79350838 248.3269043 465.79516602 C246.24966391 469.63277962 243.41528951 472.63028011 240.47924805 475.83422852 C238.1116052 478.46494279 235.87085104 481.1731911 233.6394043 483.92016602 C232.51985352 485.29495117 232.51985352 485.29495117 231.37768555 486.69750977 C230.06226088 488.31443658 228.74710764 489.93158429 227.43237305 491.54907227 C226.08737748 493.16895744 224.68242322 494.73880379 223.2644043 496.29516602 C222.6044043 496.29516602 221.9444043 496.29516602 221.2644043 496.29516602 C221.2644043 496.95516602 221.2644043 497.61516602 221.2644043 498.29516602 C220.6044043 498.29516602 219.9444043 498.29516602 219.2644043 498.29516602 C219.2644043 498.95516602 219.2644043 499.61516602 219.2644043 500.29516602 C216.8894043 502.92016602 216.8894043 502.92016602 214.2644043 505.29516602 C213.6044043 505.29516602 212.9444043 505.29516602 212.2644043 505.29516602 C212.2644043 505.95516602 212.2644043 506.61516602 212.2644043 507.29516602 C210.97143555 508.63500977 210.97143555 508.63500977 209.0769043 510.23266602 C207.97862305 511.1646582 207.97862305 511.1646582 206.8581543 512.11547852 C206.0022168 512.83477539 205.1462793 513.55407227 204.2644043 514.29516602 C203.2847168 515.13821289 202.3050293 515.98125977 201.2956543 516.84985352 C169.61599088 544.06807429 133.78219441 564.69595993 94.2644043 578.29516602 C93.50869141 578.5592627 92.75297852 578.82335937 91.97436523 579.09545898 C78.64743163 583.70994542 65.11264423 586.69382456 51.2644043 589.29516602 C50.09780273 589.52075195 48.93120117 589.74633789 47.72924805 589.97875977 C23.19750546 594.23797214 -1.92029564 593.58798238 -26.71546805 593.55661535 C-32.0807231 593.55203848 -37.44596578 593.55909999 -42.81121826 593.5645752 C-53.28478631 593.57341366 -63.75832551 593.57157271 -74.23189463 593.56574991 C-82.74614964 593.56121407 -91.26039661 593.56062878 -99.77465248 593.56279755 C-100.99115742 593.56310401 -102.20766236 593.56341048 -103.46103108 593.56372623 C-105.9329895 593.56436574 -108.40494791 593.56501416 -110.87690631 593.56574991 L-110.87690631 0 Z " fill="url(#logo-gradient)" transform="translate(499.96516114473343,208.87350016832352)"/>
  <path d="M0 0 C8.76103608 5.33366228 16.90538529 11.28590105 25.04833984 17.50976562 C26.84646278 18.88276318 28.65060104 20.24733816 30.45703125 21.609375 C41.2693249 29.79614905 51.52381301 38.55285862 61.5078125 47.7265625 C63.70495068 49.73084843 65.93280081 51.68613416 68.1875 53.625 C74.25716738 58.91428157 79.78139623 64.63844081 85.0234375 70.7421875 C86.9776003 72.97441299 88.98235175 75.15391865 91.00170898 77.32714844 C96.28217505 83.01974406 101.27484816 88.83193267 106 95 C106.50982422 95.6590332 107.01964844 96.31806641 107.54492188 96.99707031 C122.98523309 117.0028765 136.85977687 137.83427281 149 160 C149.78368689 161.40243724 150.56753273 162.80478567 151.3515625 164.20703125 C164.09124356 187.30100848 174.50312781 212.49434478 181.1484375 238.03515625 C181.99784502 241.15586846 181.99784502 241.15586846 183.42578125 244.703125 C194.41505811 273.53977631 197.93258928 308.40978766 199 339 C199.04382812 340.12116211 199.08765625 341.24232422 199.1328125 342.39746094 C200.56340602 384.37345925 193.21108024 426.75474832 181.58203125 466.96875 C181.01899111 468.9337223 180.47497799 470.90290029 179.9375 472.875 C179.6075 474.07125 179.2775 475.2675 178.9375 476.5 C178.65777344 477.5209375 178.37804688 478.541875 178.08984375 479.59375 C176.90667144 483.29169355 175.50137739 486.84871439 174.03735352 490.44287109 C173.09064238 492.77656196 172.17891989 495.11976402 171.28125 497.47265625 C165.92865935 511.34566656 159.63272264 524.69709417 153 538 C152.56397461 538.8760791 152.12794922 539.7521582 151.67871094 540.65478516 C137.44191373 569.03376442 118.96169269 597.31338671 97.22509766 620.53857422 C95.08212904 622.90914802 93.11677424 625.3538824 91.14453125 627.8671875 C85.64756175 634.61854445 79.55200321 640.71431152 73.37036133 646.83544922 C71.4318244 648.75562183 69.50151789 650.68378456 67.57226562 652.61328125 C61.55172971 658.61673633 55.52039489 664.53447477 49 670 C47.98991112 670.87648261 46.98075121 671.7540373 45.97265625 672.6328125 C37.24350222 680.10824911 28.21168073 687.13010092 19 694 C18.27119629 694.54446777 17.54239258 695.08893555 16.79150391 695.64990234 C-20.35291672 723.27221735 -93.10678261 774.42302123 -141 772 C-141.0272415 770.58344207 -141.04650467 769.16672955 -141.0625 767.75 C-141.07410156 766.96109375 -141.08570313 766.1721875 -141.09765625 765.359375 C-141 763 -141 763 -140.51098633 761.19018555 C-137.13581432 746.72355007 -139.18047247 730.84205131 -146.64453125 718.21875 C-153.33879272 707.94313421 -161.43420279 702.85526574 -173 699 C-175.62170349 698.89449687 -178.21750428 698.84516616 -180.83964539 698.84178162 C-182.05018002 698.83437465 -182.05018002 698.83437465 -183.2851699 698.82681805 C-185.998298 698.81141952 -188.7114024 698.80307605 -191.42456055 698.79467773 C-193.3658672 698.78510106 -195.30717177 698.77509111 -197.24847412 698.76467896 C-202.52704037 698.73760099 -207.80561559 698.71660708 -213.08421302 698.69667697 C-218.59756598 698.67483525 -224.1108912 698.64743769 -229.6242218 698.62062073 C-240.06827549 698.57066929 -250.51234455 698.52573955 -260.95642835 698.48259836 C-272.84504457 698.43324693 -284.73363298 698.37832104 -296.6222223 698.32291877 C-321.08145559 698.20906109 -345.54071555 698.1022303 -370 698 C-370 693.71 -370 689.42 -370 685 C-368.54647975 684.99853344 -367.0929595 684.99706688 -365.59539318 684.99555588 C-331.07085789 684.95983311 -296.54641223 684.90356193 -262.02195386 684.82207905 C-257.77008873 684.81206191 -253.51822321 684.80221773 -249.26635742 684.79248047 C-248.41990824 684.7905391 -247.57345906 684.78859772 -246.70135991 684.78659752 C-233.00622547 684.75559923 -219.31110778 684.73860293 -205.61594488 684.72680578 C-191.55735979 684.71438296 -177.49886242 684.68685606 -163.44033271 684.64538693 C-154.7695109 684.62028386 -146.0988346 684.60688039 -137.42797593 684.60857043 C-131.4773469 684.60860024 -125.5268658 684.59392312 -119.57629444 684.56783572 C-116.14606282 684.55322701 -112.71613453 684.54495449 -109.28587723 684.55419731 C-105.5584417 684.56084449 -101.83188506 684.54289701 -98.10453796 684.51898193 C-97.0315499 684.52674235 -95.95856184 684.53450277 -94.85305899 684.54249835 C-83.25353959 684.41118072 -74.58506704 680.70371035 -66 673 C-65.38382813 672.4534375 -64.76765625 671.906875 -64.1328125 671.34375 C-59.29083454 666.78153077 -55.63131374 661.5483096 -52 656 C-51.50757813 655.28714844 -51.01515625 654.57429688 -50.5078125 653.83984375 C-44.92008444 645.27702805 -41.54061644 635.53827276 -38 626 C-37.57332031 624.85144531 -37.14664062 623.70289063 -36.70703125 622.51953125 C-28.58889456 598.47616089 -26.44616497 567.26047617 -37 543.875 C-43.77167269 531.22602648 -53.20571711 522.74732658 -66.41959572 516.93586159 C-71.65085845 515.56849146 -76.72483821 515.71246455 -82.11068726 515.7215271 C-83.34087951 515.7157347 -84.57107177 515.7099423 -85.83854258 515.70397437 C-89.24551909 515.68992298 -92.65229936 515.68474498 -96.05929065 515.68332577 C-99.73613497 515.67962765 -103.41293425 515.66447012 -107.0897522 515.65071106 C-113.45754905 515.62844733 -119.82532986 515.61342872 -126.1931572 515.60334396 C-135.39993775 515.58875266 -144.60666239 515.56321455 -153.81341012 515.53501268 C-168.75108022 515.48955291 -183.68875837 515.45293472 -198.62646484 515.421875 C-213.13624485 515.39168613 -227.64600516 515.3573343 -242.15576172 515.31738281 C-243.05028405 515.31492126 -243.94480638 515.31245972 -244.86643545 515.30992357 C-249.35403321 515.29754891 -253.84163074 515.28509239 -258.32922816 515.27259517 C-295.55279174 515.16903957 -332.77637872 515.07997957 -370 515 C-370 510.71 -370 506.42 -370 502 C-368.21094238 501.99853344 -366.42188477 501.99706688 -364.57861328 501.99555588 C-322.0701157 501.95982166 -279.56168635 501.90353398 -237.05325067 501.82207905 C-231.81642521 501.81206209 -226.57959943 501.80221788 -221.34277344 501.79248047 C-220.30025523 501.7905391 -219.25773703 501.78859772 -218.18362737 501.78659752 C-201.32327206 501.75561177 -184.46293034 501.73860644 -167.60255194 501.72680578 C-150.29064601 501.71437646 -132.97881122 501.6868349 -115.66695023 501.64538693 C-104.99235715 501.6203025 -94.31788213 501.60687903 -83.64325917 501.60857043 C-76.31431561 501.60860028 -68.98549192 501.59389566 -61.65659511 501.56783572 C-57.43388232 501.55324859 -53.21141533 501.54493594 -48.98868179 501.55419731 C-45.1116374 501.56255602 -41.23508432 501.55213569 -37.35811234 501.52766338 C-35.31404933 501.51939695 -33.26993525 501.53043759 -31.22589111 501.54249835 L-31.22589111 0 Z " fill="#FEFEFD" transform="translate(1466,1076)"/>
  <path d="M0 0 C1.28970703 -0.01836914 1.28970703 -0.01836914 2.60546875 -0.03710938 C17.73947451 -0.07155704 32.12301061 5.94899386 43.125 16.1875 C43.80820313 16.76886719 44.49140625 17.35023438 45.1953125 17.94921875 C56.14461812 27.84653226 63.64732442 42.69622997 64.49609375 57.36328125 C65.13261035 76.17805917 61.37994187 92.94879762 48.75 107.5625 C35.93704042 120.91563494 20.98515005 127.99725657 2.43481445 128.58984375 C-15.51233222 128.81950598 -30.39647036 124.03256852 -43.59765625 111.45703125 C-44.34917969 110.70808594 -45.10070312 109.95914063 -45.875 109.1875 C-46.51308594 108.57261719 -47.15117188 107.95773437 -47.80859375 107.32421875 C-58.79226439 95.90022278 -63.87138003 79.18848172 -64.375 63.625 C-63.77674482 45.27207506 -55.71382697 29.17960331 -42.94140625 16.2265625 C-30.64389607 4.89404809 -16.50465246 0.012262 0 0 Z " fill="url(#logo-gradient)" transform="translate(1028.875,335.8125)"/>
  <path d="M0 0 C11.08167403 8.98336889 21.08398916 24.50445516 23.51953125 38.79296875 C25.15124776 59.09877427 21.55752125 77.05804162 8.73046875 93.41796875 C7.95832031 94.40925781 7.18617187 95.40054688 6.390625 96.421875 C-2.86980452 107.41841674 -18.21996802 114.04775036 -32.26953125 115.41796875 C-50.13887947 116.45739866 -66.07835564 112.58602421 -80.26953125 101.41796875 C-81.10742188 100.77730469 -81.9453125 100.13664063 -82.80859375 99.4765625 C-94.17777246 89.96615428 -102.0013965 74.31693805 -103.5690918 59.60717773 C-103.704992 56.76565061 -103.73791067 53.94999453 -103.70703125 51.10546875 C-103.69800781 50.1007251 -103.68898438 49.09598145 -103.6796875 48.06079102 C-103.30920544 32.07732007 -97.38824526 17.02778858 -86.30078125 5.28515625 C-60.78357401 -18.17104579 -28.27937229 -19.71281545 0 0 Z " fill="url(#logo-gradient)" transform="translate(1355.26953125,443.58203125)"/>
  <path d="M0 0 C13.0071513 10.37683316 22.84755624 25.06961246 25.22558594 41.71582031 C26.7557207 61.36807291 23.26736341 79.32014733 10.34545898 94.62719727 C-0.37594401 106.57150134 -14.76240165 114.72675541 -30.97070312 115.87084961 C-49.37551752 116.75815925 -65.51487725 113.52428767 -79.90332031 101.09082031 C-92.40713852 89.64308754 -101.02093078 73.75163678 -101.94238281 56.58691406 C-102.04106617 39.23837999 -98.52005428 25.55930275 -87.77441406 11.71582031 C-87.32582031 11.10222656 -86.87722656 10.48863281 -86.41503906 9.85644531 C-65.59332524 -16.84434064 -26.32430825 -19.05143938 0 0 Z " fill="url(#logo-gradient)" transform="translate(781.7744140625,442.2841796875)"/>
  <path d="M0 0 C0.66 0 1.32 0 2 0 C3.48828125 1.84375 3.48828125 1.84375 5.3125 4.5 C10.37921175 11.64866966 15.91604395 18.37800591 21.47949219 25.14306641 C22.80142218 26.75748508 24.10903719 28.38360465 25.4140625 30.01171875 C29.92468565 35.62949485 34.65026153 40.98247608 39.57641602 46.23510742 C42.1071942 48.93423005 44.56941698 51.66420306 46.96484375 54.484375 C52.17640678 60.46952942 57.86081459 66.00951503 63.47875977 71.60913086 C65.43295624 73.5579687 67.38175147 75.51209272 69.33007812 77.46679688 C77.64058795 85.80141506 77.64058795 85.80141506 86.42016602 93.63452148 C88.20361058 95.17598424 89.84983281 96.81738571 91.5 98.5 C94.48872337 101.53594925 97.61706479 104.34508659 100.84375 107.125 C103.19962958 109.17359094 105.5050746 111.27203002 107.8125 113.375 C111.27530082 116.50422827 114.80679003 119.50500349 118.4375 122.4375 C123.21284402 126.29941675 127.73667685 130.37674224 132.25390625 134.53515625 C134.91875166 136.92707297 137.64831825 139.19254884 140.4375 141.4375 C144.59558853 144.79872142 148.61318873 148.27350924 152.5625 151.875 C153.07546631 152.33962646 153.58843262 152.80425293 154.11694336 153.28295898 C156.44167711 155.42287308 158.23552975 157.35329462 160 160 C151.14500535 162.67329411 142.99391725 163.44124085 133.77368164 163.41992188 C132.39087243 163.42728116 131.00806933 163.43587271 129.62527466 163.44558716 C125.90877037 163.46759634 122.19248903 163.470745 118.47592854 163.46883965 C115.36414707 163.46871919 112.25241159 163.47731226 109.14064306 163.48561716 C101.80295868 163.5047701 94.46538806 163.50776194 87.12768555 163.50097656 C79.56676457 163.49431401 72.00632872 163.51730699 64.44550616 163.55429029 C57.9356573 163.5849729 51.42596485 163.59634975 44.91604513 163.59245348 C41.0353781 163.5903876 37.15509047 163.5958427 33.27449226 163.62034607 C29.63227169 163.6425925 25.99084544 163.64075425 22.34862137 163.62041855 C20.37800076 163.61538121 18.40736541 163.63503355 16.43684387 163.65542603 C7.80331217 163.5731322 7.80331217 163.5731322 3.79246521 160.71154785 C0.72722882 156.07461817 -0.24970465 153.31865815 -0.24050903 147.67254639 C-0.24325836 146.37126801 -0.24600769 145.06998962 -0.24884033 143.72927856 C-0.24176245 142.28924468 -0.23449283 140.84921173 -0.22705078 139.40917969 C-0.22648658 137.89136767 -0.2268034 136.37355511 -0.22793579 134.85574341 C-0.22850995 130.73622916 -0.2167454 126.61683122 -0.20278788 122.49734402 C-0.19029108 118.19185919 -0.18911085 113.88637174 -0.18673706 109.58087158 C-0.1805192 101.42822339 -0.16410424 93.27562879 -0.14403808 85.1230042 C-0.1216886 75.84135433 -0.11068804 66.5597019 -0.10064721 57.27803183 C-0.07973829 38.18532416 -0.04455636 19.09266639 0 0 Z " fill="#FEFEFC" transform="translate(453,1703)"/>
</svg>
